<?xml version="1.0" encoding="UTF-8"?>
<!DOCTYPE svg PUBLIC "-//W3C//DTD SVG 1.1//EN" "http://www.w3.org/Graphics/SVG/1.1/DTD/svg11.dtd">
<!-- Creator: CorelDRAW X8 -->
<svg xmlns="http://www.w3.org/2000/svg" xml:space="preserve" width="3129px" height="2086px" version="1.1" style="shape-rendering:geometricPrecision; text-rendering:geometricPrecision; image-rendering:optimizeQuality; fill-rule:evenodd; clip-rule:evenodd"
viewBox="0 0 3129 2087"
 xmlns:xlink="http://www.w3.org/1999/xlink">
 <defs>
  <style type="text/css">
   <![CDATA[
    .str0 {stroke:#D8D8D8;stroke-width:4.1676}
    .fil6 {fill:none;fill-rule:nonzero}
    .fil4 {fill:#026E71;fill-rule:nonzero}
    .fil5 {fill:#026E71;fill-rule:nonzero}
    .fil3 {fill:url(#id0);fill-rule:nonzero;fill-opacity:0.200000}
    .fil0 {fill:url(#id1);fill-rule:nonzero;fill-opacity:0.200000}
    .fil2 {fill:url(#id2);fill-rule:nonzero;fill-opacity:0.200000}
    .fil1 {fill:url(#id3);fill-rule:nonzero;fill-opacity:0.200000}
   ]]>
  </style>
  <linearGradient id="id0" gradientUnits="userSpaceOnUse" x1="1.74936" y1="398.888" x2="2068" y2="398.888">
   <stop offset="0" style="stop-opacity:1; stop-color:#D1D4DD"/>
   <stop offset="1" style="stop-opacity:1; stop-color:#DBDBDB"/>
  </linearGradient>
  <linearGradient id="id1" gradientUnits="userSpaceOnUse" xlink:href="#id0" x1="892.089" y1="1948.38" x2="3053.23" y2="1948.38">
  </linearGradient>
  <linearGradient id="id2" gradientUnits="userSpaceOnUse" xlink:href="#id0" x1="1601.83" y1="-359.067" x2="3762.97" y2="-359.067">
  </linearGradient>
  <linearGradient id="id3" gradientUnits="userSpaceOnUse" xlink:href="#id0" x1="-981.723" y1="2483.84" x2="1179.42" y2="2483.84">
  </linearGradient>
 </defs>
 <g id="Capa_x0020_1">
  <metadata id="CorelCorpID_0Corel-Layer"/>
  <path class="fil0" d="M2827 2086c3,-32 7,-64 13,-95 16,-94 41,-187 39,-283 -2,-155 -76,-309 -198,-406 -122,-97 -289,-135 -441,-100 -96,22 -186,72 -285,76 -101,5 -197,-40 -296,-58 -237,-44 -490,75 -622,276 -113,171 -139,392 -84,590l1874 0z"/>
  <path class="fil1" d="M978 2086c-32,-97 -91,-185 -171,-248 -122,-98 -289,-136 -441,-100 -96,22 -186,72 -285,76 -26,1 -53,-1 -79,-6l0 278 976 0z"/>
  <path class="fil2" d="M1767 2c108,159 272,280 454,342 227,79 480,69 708,-7 67,-22 132,-50 198,-76l0 -259 -1360 0z"/>
  <path class="fil3" d="M2068 2c-18,105 -60,206 -126,290 -129,166 -343,262 -552,249 -23,-2 -45,-4 -68,-7 -118,-16 -238,-45 -343,4 -90,42 -148,132 -229,189 -106,74 -248,86 -371,47 -124,-40 -228,-127 -304,-232 -27,-36 -50,-74 -73,-113l0 -427 2066 0z"/>
  <path class="fil4" d="M958 651c0,79 -63,142 -142,142 -78,0 -142,-63 -142,-142 0,-78 64,-142 142,-142 79,0 142,64 142,142z"/>
  <path class="fil5" d="M2541 1081c0,27 -22,49 -49,49 -27,0 -49,-22 -49,-49 0,-27 22,-48 49,-48 27,0 49,21 49,48z"/>
  <path class="fil5" d="M433 1654c0,14 -11,25 -25,25 -13,0 -24,-11 -24,-25 0,-13 11,-24 24,-24 14,0 25,11 25,24z"/>
  <path class="fil5" d="M2748 892c0,13 -11,24 -25,24 -13,0 -24,-11 -24,-24 0,-13 11,-24 24,-24 14,0 25,11 25,24z"/>
  <g id="_1670992630208">
   <path class="fil6 str0" d="M610 2c84,36 159,92 218,161 97,115 146,262 229,387 83,125 224,235 371,208 102,-19 182,-100 230,-191 48,-92 68,-195 94,-294 24,-96 55,-193 116,-271"/>
   <path class="fil6 str0" d="M674 2c70,34 133,82 183,142 91,107 138,245 215,362 78,118 210,221 348,195 95,-18 171,-94 215,-179 45,-86 64,-182 88,-276 22,-86 50,-173 102,-244"/>
   <path class="fil6 str0" d="M735 2c58,31 110,72 152,122 84,101 128,229 201,339 72,109 195,205 324,181 89,-16 159,-87 201,-167 42,-80 60,-170 82,-257 19,-76 43,-154 88,-218"/>
   <path class="fil6 str0" d="M795 2c46,27 87,62 121,103 79,93 119,212 187,314 67,101 181,191 301,168 82,-15 148,-81 186,-155 39,-74 56,-158 77,-239 17,-66 37,-134 74,-191"/>
   <path class="fil6 str0" d="M852 2c35,23 67,51 94,83 72,86 109,196 172,290 62,94 167,176 278,156 76,-15 136,-75 172,-144 36,-68 51,-145 70,-220 15,-57 32,-115 62,-165"/>
  </g>
  <g id="_1706295652976">
   <path class="fil6 str0" d="M1261 2086c2,-6 4,-12 6,-18 53,-132 199,-205 340,-222 141,-17 283,11 425,21 141,11 293,2 410,-79 162,-112 215,-331 361,-463 87,-79 207,-120 324,-117"/>
   <path class="fil6 str0" d="M1375 2086c50,-125 188,-195 321,-211 134,-16 268,10 402,21 134,10 278,1 388,-76 153,-106 204,-313 342,-438 81,-73 190,-112 299,-110"/>
   <path class="fil6 str0" d="M1491 2086c52,-107 175,-167 295,-182 126,-15 252,10 379,20 126,9 261,1 366,-71 144,-100 191,-296 322,-413 74,-68 174,-104 274,-105"/>
   <path class="fil6 str0" d="M1608 2086c54,-89 162,-140 267,-153 118,-14 237,10 356,19 119,9 246,1 344,-67 136,-94 180,-277 303,-388 67,-61 158,-95 249,-98"/>
   <path class="fil6 str0" d="M1728 2086c53,-72 146,-112 237,-123 110,-14 222,8 333,17 111,8 230,1 321,-62 127,-88 169,-260 284,-364 61,-55 142,-87 224,-91"/>
  </g>
  <g id="_1706295661840">
   <path class="fil6 str0" d="M2 990c11,18 25,34 39,49 54,53 123,87 187,129 63,41 125,94 149,166 43,127 -45,258 -86,386 -39,118 -35,248 4,366"/>
   <path class="fil6 str0" d="M2 1063c52,48 117,81 176,120 64,41 125,94 149,166 43,127 -44,258 -86,386 -36,113 -35,237 0,351"/>
   <path class="fil6 str0" d="M2 1117c41,29 85,53 127,81 64,41 125,94 149,166 43,128 -45,258 -86,386 -35,108 -36,226 -5,336"/>
   <path class="fil6 str0" d="M2 1165c26,16 52,31 78,48 63,41 124,94 149,166 42,128 -45,258 -87,386 -33,103 -35,215 -9,321"/>
  </g>
  <g id="_1706295663536">
   <path class="fil6 str0" d="M3075 2c12,43 30,84 52,122"/>
   <path class="fil6 str0" d="M3027 2c18,78 53,152 100,216"/>
   <path class="fil6 str0" d="M2981 2c18,111 71,215 146,298"/>
   <path class="fil6 str0" d="M2937 2l0 2c15,140 86,273 190,369"/>
  </g>
 </g>
</svg>
