<?xml version="1.0" encoding="UTF-8"?>
<!DOCTYPE svg PUBLIC "-//W3C//DTD SVG 1.1//EN" "http://www.w3.org/Graphics/SVG/1.1/DTD/svg11.dtd">
<!-- Creator: CorelDRAW X8 -->
<svg xmlns="http://www.w3.org/2000/svg" xml:space="preserve" width="39px" height="50px" version="1.1" style="shape-rendering:geometricPrecision; text-rendering:geometricPrecision; image-rendering:optimizeQuality; fill-rule:evenodd; clip-rule:evenodd"
viewBox="0 0 44 57"
 xmlns:xlink="http://www.w3.org/1999/xlink">
 <defs>
  <style type="text/css">
   <![CDATA[
    .fil2 {fill:none}
    .fil0 {fill:#1A4088}
    .fil1 {fill:#ED0008}
   ]]>
  </style>
 </defs>
 <g id="Capa_x0020_1">
  <metadata id="CorelCorpID_0Corel-Layer"/>
  <path class="fil0" d="M7 22l0 8 29 0 0 -8c0,-1 0,-2 0,-3 0,0 -1,0 -1,0 -3,0 -6,-3 -6,-6 0,-1 0,-2 1,-3 -1,-1 -3,-2 -4,-3 1,-3 -1,-7 -5,-7 -3,0 -6,4 -4,7 -6,2 -10,8 -10,15l0 0zm14 -19c1,0 2,1 2,2 0,1 -1,2 -2,2 -1,0 -1,-1 -1,-2 0,-1 0,-2 1,-2z"/>
  <path class="fil0" d="M36 33l-29 0c-3,1 -5,4 -5,7l0 3c0,1 0,2 1,2l17 0 0 2c-2,0 -4,2 -4,4 0,3 3,5 5,5 3,0 5,-2 5,-5 0,-2 -1,-4 -3,-4l0 -2 16 0c1,0 2,-1 2,-2l0 -3c0,-3 -2,-6 -5,-7l0 0z"/>
  <circle class="fil1" cx="35" cy="13" r="5"/>
  <rect class="fil2" width="44.4648" height="56.8853"/>
 </g>
</svg>
